<svg enable-background="new 0 0 459 212.5" viewBox="0 0 459 212.5" xmlns="http://www.w3.org/2000/svg"><g fill="#575756"><path d="m58.2 194.8c-5.8 0-8-2.7-8-7 0-3.9 2.4-7.5 7.9-7.5 3.5 0 6.3 1 6.3 1v10.3h2.9v3.1zm-4.9-18.4c0-1.1.9-2 2-2s2 .9 2 2-.9 2-2 2c-1.2 0-2-.9-2-2zm7.3 7.6s-1.1-.5-2.8-.5c-2.2 0-3.6 1.7-3.6 4 0 2.7 1.3 4.2 4.5 4.2h1.9zm-2.3-7.6c0-1.1.9-2 2-2s2 .9 2 2-.9 2-2 2c-1.2 0-2-.9-2-2z"/><path d="m66.9 191.7h4.2v-11h4v11h2.9v3.1h-11.1zm1.1-15.3c0-1.1.9-2 2-2s2 .9 2 2-.9 2-2 2-2-.9-2-2zm2.6-4.1c0-1 .8-1.9 1.8-1.9s1.9.8 1.9 1.9-.8 1.9-1.9 1.9c-1 0-1.8-.9-1.8-1.9zm2.4 4.1c0-1.1.9-2 2-2s2 .9 2 2-.9 2-2 2c-1.2 0-2-.9-2-2z"/><path d="m77.5 191.7h5.6v-11h4v14.1h-9.6zm2.6 9.6c-1.1 0-2-.9-2-2s.9-2 2-2 2 .9 2 2-.9 2-2 2zm5 0c-1.1 0-2-.9-2-2s.9-2 2-2 2 .9 2 2c-.1 1.1-.9 2-2 2z"/><path d="m90.7 191.7h8.9c-.2-4.4-2.4-7.2-7.1-8.4l1-3.3c6.1 1.6 9.6 5 10 11.7h1.9v3.1h-14.7z"/><path d="m105 191.7h11.6c.1-.7.1-1.5.1-2.3 0-3.8-1.6-5.8-5.9-5.8-1.2 0-2.3.1-3.4.2v-3.1c1.2-.2 2.5-.3 3.8-.3 6.7 0 9.4 3 9.4 8.7 0 .7 0 1.6-.1 2.4h2.3v3.1h-17.8z"/><path d="m122.4 191.7h3.7v-18h4v21.1h-7.7z"/><path d="m135.2 173.7h4v21.1h-4z"/><path d="m150.4 193.2c0-1.7.2-3.6.7-5.4l4.1-.7c-.5 1.9-.8 3.9-.8 5.8 0 4.6 2.2 5.8 4.3 5.8 2.6 0 4.2-1.4 4.2-5.7v-10.4h4v5.9c0 2.2.5 3.5 2.3 3.5 1.7 0 2.2-1.3 2.2-3.4v-7.1h3.8v7c0 2.5.7 3.3 3.3 3.3h1c.1-1.2.2-2.7.2-3.6 0-3-.4-5.8-.9-8l3.9-.5c.6 2.4 1 5.3 1 8.3 0 2.2-.2 4.9-.4 7h-5.6c-2.6 0-4.2-.6-4.9-2.2-.5 1.6-1.9 2.5-3.6 2.5-1.3 0-2.2-.5-2.7-1.2.1.2.1.4.1.7 0 2.1-1 7.2-8.2 7.2-4.9-.3-8-2.8-8-8.8z"/><path d="m188.2 173.7h4v18h3v3.1h-7z"/><path d="m199.1 192.5c-.7 1.6-2.2 2.3-4 2.3h-.4v-3.1h.6c1.4 0 2.2-.9 2.2-3.6 0-4.3 2.6-7.8 7.6-7.8 4.8 0 6.9 2.8 6.9 7.1v4.2h2.5v3.1h-9.4c-3.4.1-5.1-.7-6-2.2zm9.1-4.6c0-3.1-1.1-4.5-3.3-4.5s-3.5 1.7-3.5 4.3 1.1 4 4.2 4h2.6z"/><path d="m214.2 191.7h3.7v-18h4v21.1h-7.7z"/><path d="m226.9 173.7h4v21.1h-4z"/><path d="m249.9 194.8c-5.8 0-8-2.7-8-7 0-3.9 2.4-7.5 7.9-7.5 3.5 0 6.3 1 6.3 1v10.3h2.9v3.1zm-4.9-18.4c0-1.1.9-2 2-2s2 .9 2 2-.9 2-2 2-2-.9-2-2zm7.3 7.6s-1.1-.5-2.8-.5c-2.2 0-3.6 1.7-3.6 4 0 2.7 1.3 4.2 4.5 4.2h1.9zm-2.3-7.6c0-1.1.9-2 2-2s2 .9 2 2-.9 2-2 2-2-.9-2-2z"/><path d="m258.6 191.7h1c2.8 0 5.2-.3 7-.9-1.9-1.8-3.7-3.7-6.3-4.4l.3-2.8c2.4-1.7 5.7-3.3 8.7-3.3 4.5 0 6.3 2.3 6.3 4.9 0 2-1 4.1-3.1 5.8 1 .5 2.1.8 3.3.8h2v3.1h-2.4c-2.6 0-4.6-.8-6.2-1.9-2.5 1.1-5.9 1.9-9.9 1.9h-.8v-3.2zm11.3-2.6c1.3-1 1.9-2.2 1.9-3.4 0-1.4-.9-2.5-2.8-2.5-1.6 0-3.5 1.1-4.6 1.8 2 .8 3.6 2.5 5.5 4.1z"/><path d="m277.4 191.7h4.2v-11h4v11h2.9v3.1h-11.1zm1.9 7.6c0-1.1.9-2.1 2.1-2.1s2.1.9 2.1 2.1c0 1.1-.9 2.1-2.1 2.1s-2.1-.9-2.1-2.1z"/><path d="m288.1 191.7h3.7v-18h4v7.8c0 1.3-.1 3-.3 4.4 1.5-3.5 4.5-5.6 7.7-5.6 4.1 0 6.1 2.8 6.1 7.3 0 1.3 0 2.8-.1 4.1h2.8v3.1h-23.7v-3.1zm16.9 0c.1-1.2.1-2.6.1-3.7 0-2.8-.7-4.5-2.8-4.5-3.2 0-5.9 4-6.6 8.2z"/><path d="m322 194.8c-3.5 0-5.3-.8-6.2-2.3-.7 1.6-2.2 2.3-4 2.3h-.5v-3.1h.6c1.4 0 2.2-.9 2.2-3.6 0-4.3 2.6-7.8 7.6-7.8 4.8 0 6.9 2.8 6.9 7.1v7.3h-6.6zm2.9-6.9c0-3.1-1.1-4.5-3.3-4.5s-3.5 1.7-3.5 4.3 1.1 4 4.2 4h2.6z"/><path d="m347.4 194.8c-5.8 0-8-2.7-8-7 0-3.9 2.4-7.5 7.9-7.5 3.5 0 6.3 1 6.3 1v10.3h2.9v3.1zm-5-18.4c0-1.1.9-2 2-2s2 .9 2 2-.9 2-2 2-2-.9-2-2zm7.3 7.6s-1.1-.5-2.8-.5c-2.2 0-3.6 1.7-3.6 4 0 2.7 1.3 4.2 4.5 4.2h1.9zm-2.3-7.6c0-1.1.9-2 2-2s2 .9 2 2-.9 2-2 2-2-.9-2-2z"/><path d="m356 191.7h8.9c-.2-4.6-2.6-7.3-7.3-8.5v-2.9l11.9-7.4v3.9l-7.3 4.4c4 1.8 6.7 5.1 6.7 11.6v2h-12.9z"/><path d="m370.5 202.1.3-3.1c.7.2 1.5.4 2.4.4 2 0 3.2-1 3.2-4.2v-14.4h4v11h3v3.1h-3v.1c0 3.8-1.3 7.5-7.4 7.5-.9-.1-1.8-.2-2.5-.4z"/><path d="m382.9 191.7h1c1.9 0 2.7-.8 2.7-3.7v-5.4h4v5.9c0 2.2.5 3.5 2.3 3.5 1.7 0 2.2-1.3 2.2-3.4v-7.2h3.8v7c0 2.5.7 3.3 3.3 3.3h1c.1-1.2.2-2.7.2-3.6 0-3-.4-5.8-.9-8l3.9-.5c.6 2.4 1 5.3 1 8.3 0 2.2-.2 4.9-.4 7h-5.6c-2.6 0-4.2-.6-4.9-2.2-.7 1.7-2.5 2.5-4.3 2.5-2.2 0-3.7-.9-4.3-2.5-.5 1.4-1.8 2.2-4 2.2h-.9v-3.2zm9.4-15.3c0-1.1.9-2 2-2s2 .9 2 2-.9 2-2 2-2-.9-2-2zm2.6-4.1c0-1 .8-1.9 1.8-1.9s1.9.8 1.9 1.9-.8 1.9-1.9 1.9c-1 0-1.8-.9-1.8-1.9zm2.3 4.1c0-1.1.9-2 2-2s2 .9 2 2-.9 2-2 2-2-.9-2-2z"/><path d="m215.7 163-1.2-8c-.2-1.5-.4-3-.5-4.1-.2 1.1-.5 2.4-.9 3.8l-2.7 8.3h-3.1l-2.5-7.8c-.4-1.4-.8-3-1.1-4.4-.1 1.5-.3 3-.4 4.4l-1 7.7h-3.3l2.5-16.5h3.7l2.8 8.5c.3.9.7 2.3.9 3.5.3-1.2.6-2.5.9-3.4l2.8-8.6h3.7l2.7 16.6z"/><path d="m226.3 163.2c-3.5 0-5.7-1.8-5.7-6.1 0-3.8 2.5-6.5 6.2-6.5 3.5 0 5.7 1.9 5.7 6.1 0 3.8-2.6 6.5-6.2 6.5zm.3-10c-1.4 0-2.8 1.1-2.8 3.6s.9 3.8 2.7 3.8c1.5 0 2.7-1.2 2.7-3.7.1-2.4-.8-3.7-2.6-3.7z"/><path d="m242.4 163c0-.6 0-1.4.1-2-.6 1.3-2 2.3-3.8 2.3-3 0-4.4-2.2-4.4-5.7 0-4.1 2.4-7 6.4-7 .5 0 1 0 1.5.1v-5.6h3.1v17.9zm-.2-9.7c-.6-.1-1.1-.2-1.6-.2-1.8 0-3.1 1.1-3.1 4.1 0 2.3.7 3.5 2.1 3.5 1.6 0 2.6-1.9 2.6-4z"/><path d="m258.5 157.5h-7.5c0 2.2 1 3.3 3.4 3.3 1.2 0 2.4-.2 3.5-.7l.3 2.4c-1.3.5-2.9.8-4.4.8-3.8 0-6-1.9-6-6.2 0-3.6 2.2-6.4 5.8-6.4 3.5 0 5 2.3 5 5.2 0 .3 0 1.1-.1 1.6zm-5.1-4.6c-1.3 0-2.2 1-2.4 2.5h4.5c.1-1.7-.7-2.5-2.1-2.5z"/><path d="m267.8 153.6c-2.3-.4-3.4 1-3.4 4.4v5h-3.1v-12.2h3c0 .6-.1 1.6-.2 2.4.6-1.5 1.8-2.9 3.9-2.7z"/><path d="m277.4 163v-7.8c0-1.2-.3-2-1.5-2-1.6 0-2.8 1.8-2.8 3.9v5.9h-3.1v-12.2h3c0 .6 0 1.5-.2 2.2.7-1.4 2.2-2.4 4.1-2.4 2.7 0 3.6 1.7 3.6 3.9v8.5z"/><path d="m294.3 157.3c-.6 0-1.1 0-1.1 0v5.7h-3.2v-16.5s2.3-.1 4.6-.1c4 0 6.3 1.8 6.3 5.1-.1 3.3-2.4 5.8-6.6 5.8zm0-8.3c-.6 0-1.2 0-1.2 0v5.6s.6.1 1.3.1c2 0 3.1-1.1 3.1-2.9s-.9-2.8-3.2-2.8z"/><path d="m309.4 153.6c-2.3-.4-3.4 1-3.4 4.4v5h-3.1v-12.2h3c0 .6-.1 1.6-.2 2.4.6-1.5 1.8-2.9 3.9-2.7z"/><path d="m313.2 149c-1.1 0-1.9-.8-1.9-1.9s.9-1.9 1.9-1.9c1.1 0 2 .8 2 1.9-.1 1-1 1.9-2 1.9zm-1.6 14v-12.2h3.1v12.2z"/><path d="m325.6 163v-7.8c0-1.2-.3-2-1.5-2-1.6 0-2.8 1.8-2.8 3.9v5.9h-3.1v-12.2h3c0 .6 0 1.5-.2 2.2.7-1.4 2.2-2.4 4.1-2.4 2.7 0 3.6 1.7 3.6 3.9v8.5z"/><path d="m335.9 163.2c-2.7 0-3.5-1-3.5-3.8v-6.2h-2.1v-2.4h2.1v-3.7l3.1-.8v4.6h3v2.4h-3v5.3c0 1.6.4 2 1.4 2 .5 0 1 0 1.4-.2l.2 2.5c-.7.2-1.7.3-2.6.3z"/><path d="m350.9 157.5h-7.5c0 2.2 1 3.3 3.4 3.3 1.2 0 2.4-.2 3.5-.7l.3 2.4c-1.3.5-2.9.8-4.4.8-3.8 0-6-1.9-6-6.2 0-3.6 2.2-6.4 5.8-6.4 3.5 0 5 2.3 5 5.2 0 .3 0 1.1-.1 1.6zm-5.1-4.6c-1.3 0-2.2 1-2.4 2.5h4.5c0-1.7-.8-2.5-2.1-2.5z"/><path d="m360.1 153.6c-2.3-.4-3.4 1-3.4 4.4v5h-3.1v-12.2h3c0 .6-.1 1.6-.2 2.4.6-1.5 1.8-2.9 3.9-2.7z"/><path d="m364.5 163.2c-1 0-1.9-.1-2.7-.3l.2-2.6c.7.3 1.7.5 2.6.5 1.2 0 2-.5 2-1.3 0-2.2-4.9-.9-4.9-5 0-2.2 1.6-3.9 5.2-3.9.7 0 1.5.1 2.2.2l-.1 2.4c-.7-.2-1.4-.3-2.2-.3-1.2 0-1.8.5-1.8 1.2 0 2.1 5 1 5 5-.1 2.5-2.3 4.1-5.5 4.1z"/><path d="m385.3 163.2c-5.8 0-7.6-3.8-7.6-7.9 0-5.2 2.7-8.9 8.3-8.9 1.2 0 2.4.2 3.5.5l-.4 2.9c-1-.4-2.1-.6-3.2-.6-3.1 0-4.6 2.3-4.6 5.6 0 3.6 1.5 5.6 4.8 5.6 1 0 2.3-.3 3.1-.7l.5 2.8c-1.3.4-2.8.7-4.4.7z"/><path d="m396.7 163.2c-3.5 0-5.7-1.8-5.7-6.1 0-3.8 2.5-6.5 6.2-6.5 3.5 0 5.7 1.9 5.7 6.1 0 3.8-2.6 6.5-6.2 6.5zm.2-10c-1.4 0-2.8 1.1-2.8 3.6s.9 3.8 2.7 3.8c1.5 0 2.7-1.2 2.7-3.7.1-2.4-.7-3.7-2.6-3.7z"/><path d="m406.2 163.2c-1.1 0-2-.9-2-2s.9-2 2-2 2 .9 2 2-.9 2-2 2z"/></g><path d="m163.7 8.7h21.5v133.4h-21.5z" fill="#005ca9"/><path d="m198.1 82.3h13.5v3.2c1.8-2.1 3.6-3.6 5.6-4.5s4.3-1.4 6.9-1.4c3.9 0 7.4.8 10.6 2.4s6 3.7 8.3 6.4c2.4-2.7 5.4-4.8 8.8-6.4s7.1-2.4 10.9-2.4c3.6 0 7 .7 10.2 2.1s5.9 3.3 8.3 5.6c2.3 2.4 4.2 5.1 5.6 8.3s2.1 6.6 2.1 10.2l.1 36.3h-13.5l-.1-36.3c0-1.7-.3-3.3-1-4.8-.6-1.5-1.5-2.9-2.7-4-1.1-1.2-2.5-2.1-4-2.8s-3.1-1-4.8-1c-1.8 0-3.4.3-4.9 1s-2.8 1.6-4 2.8-2 2.5-2.7 4-1 3.1-1 4.8l.1 36.3h-13.5l-.1-36.3c0-1.8-.3-3.4-1-4.9s-1.6-2.9-2.7-4-2.5-2-4.1-2.7c-1.6-.6-3.2-1-4.9-1-1.8 0-3.4.3-4.9 1s-2.8 1.6-4 2.8c-1.1 1.2-2 2.6-2.7 4.1s-1 3.1-1 4.7l.1 36.3h-13.5z" fill="#005ca9"/><path d="m296.9 110.8c0-4.4.8-8.4 2.5-12.2 1.6-3.8 3.9-7.1 6.7-9.9s6.1-5 9.9-6.7c3.8-1.6 7.9-2.5 12.2-2.5 4.4 0 8.4.8 12.2 2.5 3.8 1.6 7.1 3.9 9.9 6.7s5 6.1 6.7 9.9c1.6 3.8 2.5 7.9 2.5 12.2v31.2h-13.3v-5.6c-5.3 3.7-11.2 5.6-17.9 5.6-4.7 0-9.1-.8-12.9-2.4-3.9-1.6-7.2-3.8-9.9-6.6s-4.8-6.1-6.3-9.9-2.3-7.9-2.3-12.3zm13.3 0c0 2.5.5 4.8 1.4 6.9 1 2.2 2.2 4.1 3.9 5.7 1.6 1.6 3.5 2.9 5.7 3.8 2.2 1 4.5 1.4 7 1.4s4.8-.4 7-1.3 4.1-2.1 5.8-3.7 2.9-3.5 3.9-5.7c.9-2.2 1.4-4.6 1.4-7.2 0-2.4-.5-4.8-1.4-6.9-1-2.2-2.2-4.1-3.9-5.7-1.6-1.6-3.5-2.9-5.7-3.8-2.2-1-4.5-1.4-7-1.4-2.4 0-4.8.5-7 1.4-2.2 1-4.1 2.2-5.7 3.8s-2.9 3.5-3.9 5.7c-1 2.3-1.5 4.6-1.5 7z" fill="#005ca9"/><path d="m395.3 123.6c.1-2.3-.7-3.9-2.4-4.9-1.6-1-4.1-1.9-7.3-2.8-2.1-.5-4.2-1.2-6.3-1.9-2.1-.8-4-1.8-5.7-3-1.7-1.3-3.1-2.8-4.3-4.7-1.1-1.9-1.9-4.2-2.2-6.9-.2-2.8.2-5.3 1.1-7.7 1-2.4 2.4-4.4 4.4-6.2 1.9-1.8 4.2-3.2 6.7-4.2 2.6-1 5.3-1.6 8.2-1.6 2.4 0 4.7.4 6.9 1.3 2.1.8 4.1 1.9 5.7 3.3 1.7 1.3 3.1 2.8 4.1 4.5 1.1 1.6 1.8 3.3 2.2 4.9h-13.4c-.8-1.5-2.7-2.2-6-2.2-1.9 0-3.6.6-5.2 1.7-1.5 1.1-2.1 2.8-1.6 4.9.3 1.3 1.4 2.3 3.4 3.1s4.9 1.8 8.8 3.1c2.3.8 4.4 1.7 6.4 2.8s3.7 2.4 5.2 3.9 2.7 3.4 3.5 5.5 1.3 4.6 1.3 7.5-.6 5.5-1.8 7.7c-1.2 2.3-2.8 4.2-4.8 5.7-2 1.6-4.3 2.8-6.9 3.6s-5.3 1.3-8.2 1.3c-2.5 0-5.1-.5-7.6-1.4-2.6-1-4.9-2.3-6.9-4s-3.7-3.8-5-6.3-1.9-5.2-1.9-8.2h13.3c.1 2.1.9 3.9 2.4 5.5s3.5 2.4 6 2.4c2.3 0 4.2-.7 5.6-2.1 1.5-1.6 2.2-3.1 2.3-4.6z" fill="#005ca9"/><path d="m146.9 72.1c-2.7-6.1-6.2-11.4-10.7-15.9s-9.8-8.1-15.9-10.7c-6.1-2.7-12.7-4-19.7-4s-13.6 1.3-19.7 4-11.4 6.2-16 10.7c-4.7 4.5-8.3 9.8-10.9 15.9-2.7 6.1-4 12.7-4 19.7s1.2 13.6 3.6 19.7 5.8 11.5 10.2 16c4.4 4.6 9.7 8.2 15.9 10.7 6.2 2.6 13.2 3.9 20.8 3.9 10.7 0 20.4-3 28.9-9.1v9h21.5v-50.2c0-7-1.3-13.6-4-19.7zm-57.2 4.6.7-1.1.7-1.1.3-.5.4-.7.7-1.1.7-1.2.7-1.1.5-.9.2-.3.7-1.1.7-1.1.7-1.1.7-1.1.1-.1.6-1 .7-1.1.7-1.2.7-1.1.3.5.4.6.7 1.2.7 1.1.7 1.1.6.9.1.2.7 1.1.7 1.1.7 1.1.7 1.1.5.2.6 1 .7 1.2.7 1.1.7 1.1.4.6.4.6.7 1.2.1.2h-.1-.7-.4-.4-.7-.7-.7-.6-.1-.7-.7-.7-.8-.1-.6-.7-.7-.7-.4-.3-.7-.8-.7-.6-.1-.7-.7-.7-.7-.2-.6-.7-.7-.7-.4-.3-.7-.7-.1zm0 1.9h.7.7.3.4.7.7.8.5.2.7.7.7.7.1.6.8.7.7.3.4.7.7.7.6.1.7.7.7.7.1.6.7.7.7.4.4.7.6l-.6 2.7-.7 3.5-.4 1.8-.4 1.7-.7 3.5-.7 3.5-.7 3.5-.6 3-.1.5-.7 3.5-.7 3.5-.7 3.5-.7 3.5-.1.7-.6 2.7-.7 3.4-.7 3.5-.7 3.5-.4 1.9-.3 1.5-.7-3.4-.7-3.5-.7-3.5-.6-3.1-.1-.3-.7-3.5-.7-3.5-.7-3.4-.7-3.5-.2-.9-.6-2.9-.7-3.5-.7-3.5-.7-3.5-.4-2.1-.3-1.4-.7-3.5-.7-3.5-.6-2.7h.5zm-32.8-2.5.4-.7.3-.5.7-1.2.7-1.1.7-1.2.7-1.1v-.1l.7-1.1.7-1.2.7-1.1.7-1.2.2-.3.5-.8.7-1.1.7-1.2.7-1.2.5-.7.3-.4.7-1.2.6-1h.1.8.7.7.7.7.7.2.5.8.7.7.5.2.7.7.7.8.7.7.7.7.3.5.7.7.7.4l-.4.6-.7 1-.7 1-.7 1-.5.6-.3.4-.7 1-.7 1-.7 1-.7.8-.7 1-.7 1-.7 1-.7 1-.2.3-.5.6-.7 1-.7 1-.7 1-.5.7-.2.3-.7 1-.7 1-.1.1h-.6-.7-.9-.7-.7-.7-.3-.5-.7-.7-.7-.5-.2-.7-.7-.7-.7-.7-.8-.7-.7-.3-.4-.5zm87.3 2.7-.2.3-.7 1-.7 1-.7 1-.7 1v.1l-.7.9-.7 1-.7 1-.7 1-.3.4-.4.6-.7 1-.7 1-.7 1-.5.8-.2.2-.7 1-.7 1-.7 1-.7 1-.1.1-.6.9-.7 1-.7 1-.7 1-.3.5-.4.6-.7 1-.7 1-.7 1-.5.8-.2.2-.7 1-.7 1-.7 1-.7 1-.1.1-.6.9-.7 1-.7 1-.7 1-.4.5-.8.3-.7 1-.7 1-.7 1-.6.8-.1.2-.7 1-.7 1-.7 1-.7 1-.1.2-.6.8-.7 1-.7 1-.7 1-.4.5-.4.5-.7 1-.7 1-.7 1-.6.9-.1.1-.7 1-.7 1-.7 1-.7 1-.1.2-.6.8-.7 1-.7 1-.7 1-.4.5-.3.4-.7-1-.7-1-.7-1-.6-.9-.1-.1-.7-1-.7-1-.7-1-.7-1-.2-.3-.9-.6-.7-1-.7-1-.7-1-.4-.6-.3-.4-.7-1-.7-1-.7-1-.7-.9v-.1l-.7-1-.7-1-.7-1-.7-1-.2-.3-.5-.7-.7-1-.7-1-.7-1-.5-.6-.3-.4-.7-1-.7-1-.7-1-.7-1-.7-1-.7-1-.7-1-.7-1-.2-.3-.5-.7-.7-1-.7-1-.7-1-.5-.7-.2-.3-.7-1-.7-1-.7-1-.7-1-.7-1-.7-1-.7-1-.7-1-.3-.3-.5-.6-.7-1-.7-1-.7-1-.5-.7-.2-.3-.7-1-.7-1-.7-1-.7-1-.7-1-.7-1-.7-1-.7-1-.3-.4-.4-.6-.3-.5h.3.4.3.7.2.7.7.7.7.7.7.2.6.7.7.7.5.3.7.7.7.7.7.6l.2.3.7 1.5.7 1.5.2.5.5 1 .7 1.5.7 1.5.7 1.5.5 1 .2.5.7 1.5.7 1.5.7 1.5.7 1.5.7 1.5.7 1.5.7 1.5.7 1.5.3.5.5 1 .7 1.5.8 1.6.7 1.5.5 1.1.2.4.7 1.5.7 1.5.7 1.5.7 1.5v.1l.7 1.4.7 1.5.7 1.5.7 1.5.3.6.4.9.7 1.5.7 1.5.9 1.5.5 1.1.2.4.7 1.5.7 1.5.7 1.5.7 1.5.1.2.6 1.4.7 1.5.5 1h.2c.2 0 .4-.1.7-.1l.3.1.4.1h.2l.5-1 .7-1.5.7-1.5.6-1.2.1-.3.7-1.5.7-1.5.7-1.5.7-1.5.1-.2.6-1.3.7-1.5.7-1.5.7-1.5.4-.7.4-.8.7-1.5.7-1.5.7-1.5.6-1.2.1-.3.7-1.5.7-1.5.7-1.5.7-1.5.1-.3.6-1.2.7-1.5.7-1.5.7-1.5.4-.8.4-.7.7-1.5.7-1.5.7-1.5.6-1.3.1-.2.7-1.5.7-1.5.7-1.5.7-1.5.2-.3.5-1.2.7-1.5.7-1.5.7-1.5.4-.8.3-.7.7-1.5.2-.3h.6.7.6.1.7.7.7.7.2.5.7.7.7.4.3.7.7.7.7.7.7.7.7.2.2zm0-1.9h-.2-.7-.7-.7-.7-.7-.7-.8-.7-.3-.4-.7-.7-.7-.5-.2-.8-.7-.7-.7-.1-.6-.7-.6l-.1-.1-.7-1-.3-.4-.4-.5-.7-1-.7-1-.7-1-.5-.8-.2-.2-.7-1-.9-.9-.7-1-.7-1-.1-.1-.6-.9-.7-1-.7-1-.7-1-.4-.5-.4-.5-.7-1-.7-1-.7-1-.6-.8-.1-.2-.5-.6h.5.1.6.7.7.7.4.4.7.7.7.6.1.7.7.7.7.2.5.7.7.7.4.3.7.7.7.6.1.7.1l.6 1 .7 1.1.7 1.2.2.3.5.9.7 1.2.7 1.2.7 1.2.4.7.3.5 1 1.3.7 1.2.7 1.1.7 1.1.7 1.2.7 1.1.7 1.2.7 1.2.2.3.3.4h-.2z" fill="#005ca9"/><path d="m129.4 146.3h21.5v13.6h-21.5z" fill="#005ca9"/></svg>